<svg width="769" height="87" viewBox="0 0 769 87" fill="none" xmlns="http://www.w3.org/2000/svg">
<g clip-path="url(#clip0_42_663)">
<path d="M219.61 73.29C204.42 73.29 196.78 68.5 196.78 58.84V34.31C196.78 30.53 199.07 28.6 203.74 28.6C208.41 28.6 210.78 30.53 210.78 34.31V59.01C210.78 61.19 213.49 62.29 218.92 62.29H235.69C241.18 62.29 243.78 61.2 243.78 59.01V34.31C243.78 30.53 246.14 28.6 250.78 28.6C255.42 28.6 257.78 30.53 257.78 34.31V58.84C257.78 68.5 250.19 73.29 235.08 73.29H219.59H219.61Z" fill="#2D3494"/>
<path d="M283.78 73.28C271.78 73.28 265.78 69.37 265.78 61.54V55.95C265.78 48.12 271.92 44.29 284.19 44.29H316.78V42.35C316.78 40.33 314.46 39.29 309.82 39.29H286.32C282.32 39.29 280.32 37.68 280.32 34.29C280.32 30.9 282.32 29.29 286.32 29.29H309.33C322.99 29.29 329.78 33.71 329.78 42.74V60.52C329.78 69.03 323.57 73.29 310.91 73.29H283.78V73.28ZM316.78 60.33V53.29H286.3C281.97 53.29 279.78 54.33 279.78 56.16V60.42C279.78 62.33 281.98 63.29 286.3 63.29H310.1C314.5 63.29 316.79 62.33 316.79 60.34L316.78 60.33Z" fill="#2D3494"/>
<path d="M340.77 43.29C340.77 33.96 348.41 29.29 363.6 29.29H368.09C372.51 29.29 374.66 31.05 374.66 34.74C374.66 38.43 372.49 40.29 368.09 40.29H362.77C357.45 40.29 354.78 41.3 354.78 43.48V67.19C354.78 70.96 352.41 72.84 347.74 72.84C343.07 72.84 340.78 70.87 340.78 67.19V43.29H340.77Z" fill="#2D3494"/>
<path d="M404.05 73.29C389.23 73.29 381.78 68.53 381.78 58.93V43.57C381.78 34.05 389.23 29.29 404.05 29.29H429.78V18.3C429.78 14.55 432.22 12.64 436.78 12.64C441.34 12.64 443.78 14.55 443.78 18.3V58.93C443.78 68.53 436.33 73.29 421.43 73.29H404.05ZM429.78 59.29V40.29H402.9C397.55 40.29 394.78 41.37 394.78 43.54V59.29C394.78 61.28 397.54 62.29 402.9 62.29H421.73C427.18 62.29 429.76 61.29 429.76 59.29H429.77H429.78Z" fill="#2D3494"/>
<path d="M538.78 37.89L513.44 69.71C512.04 71.47 509.8 73.38 505.74 73.38C501.68 73.38 499.45 71.37 498.13 69.71L472.79 37.81V67.58C472.79 71.42 470.47 73.35 465.74 73.35C461.01 73.35 458.79 71.42 458.79 67.58V21.16C458.79 16.99 461.19 14.81 465.83 14.81C470.13 14.81 472.29 16.57 474.44 19.23L505.74 58.58L537.13 19.23C539.29 16.56 541.43 14.89 545.74 14.81C550.38 14.81 552.78 17.07 552.78 21.16V67.57C552.78 71.41 550.46 73.34 545.83 73.34C541.2 73.34 538.78 71.41 538.78 67.57V37.88V37.89Z" fill="#2D3494"/>
<path d="M585.92 73.29C571.18 73.29 563.78 68.53 563.78 58.93V43.57C563.78 34.05 571.19 29.29 585.92 29.29H602.55C617.37 29.29 624.78 34.05 624.78 43.57V58.93C624.78 68.53 617.37 73.29 602.55 73.29H585.92ZM611.78 43.53C611.78 41.38 609.05 40.29 603.75 40.29H585.8C580.42 40.29 577.77 41.37 577.77 43.53V59.05C577.77 61.2 580.42 62.29 585.8 62.29H603.75C609.04 62.29 611.78 61.21 611.78 59.05V43.53Z" fill="#2D3494"/>
<path d="M657.05 73.29C642.23 73.29 634.79 68.53 634.79 58.93V43.57C634.79 34.05 642.24 29.29 657.05 29.29H682.79V18.3C682.79 14.55 685.23 12.64 689.79 12.64C694.35 12.64 696.79 14.55 696.79 18.3V58.93C696.79 68.53 689.34 73.29 674.44 73.29H657.06H657.05ZM682.79 59.29V40.29H655.91C650.56 40.29 647.79 41.37 647.79 43.54V59.29C647.79 61.28 650.55 62.29 655.91 62.29H674.74C680.19 62.29 682.77 61.29 682.77 59.29H682.78H682.79Z" fill="#2D3494"/>
<path d="M719.78 55.28V60.33C719.78 62.33 722.24 63.29 727.23 63.29H754.89C758.93 63.29 760.91 64.97 760.91 68.33C760.91 71.69 758.93 73.29 754.89 73.29H726.81C712.82 73.29 705.78 68.78 705.78 59.85V42.07C705.78 33.55 711.99 29.29 724.66 29.29H750.38C762.66 29.29 768.78 33.11 768.78 40.83V50.72C768.78 53.79 766.87 55.29 763.14 55.29H719.78V55.28ZM718.78 47.29H753.94C754.53 47.29 754.78 47.04 754.78 46.55V43.26C754.78 41.28 752.6 40.29 748.17 40.29H725.57C721.05 40.29 718.79 41.28 718.79 43.26V47.29H718.78Z" fill="#2D3494"/>
<path d="M187 40.22C186.49 37.98 184.47 36.29 182.07 36.29H164.85C162.06 36.29 159.78 38.57 159.78 41.36V42.22C159.78 45.01 162.06 47.29 164.85 47.29H173.78V56.53C173.78 60.31 169.66 62.29 161.59 62.29H143.89C135.82 62.29 131.78 60.32 131.78 56.53V31.2C131.78 27.95 135.5 26.29 142.95 26.29H163.9C168.12 26.29 170.19 24.46 170.19 20.7C170.19 16.94 168.12 15.29 163.9 15.29H142.7C126.06 15.29 117.78 20.45 117.78 30.79V57.06C117.78 67.91 126.2 73.29 143.04 73.29H162.52C179.28 73.29 187.78 67.91 187.78 57.06V43.4C187.78 42.13 187.5 41.08 186.98 40.24L187 40.22Z" fill="#2D3494"/>
<path d="M31.35 36.69C26.8 37.02 22.75 37.52 19.44 38.01C13.97 36.23 6.4 32.95 2.94 29.94C4.51 29.69 6.29 29.43 8.23 29.19C14.78 32.1 21.84 34.34 31.35 36.69Z" fill="#82BC45"/>
<path d="M30.02 60.89C25.99 61.19 22.36 61.61 19.3 62.04C14.62 59.36 7.84001 53.66 7.70001 53.53C14.2 56.34 20.95 58.61 30.02 60.89Z" fill="#82BC45"/>
<path d="M81.22 19.63C62.7 12.41 42.2 12.17 23.82 14.29C16.58 12.21 7.37001 8.41003 3.64001 5.24003C28.57 -2.05997 55.96 -1.72997 80.75 6.20003C80.97 8.23003 81.24 18.69 81.22 19.63Z" fill="#82BC45"/>
<path d="M80.78 28.4801C80.4 33.0701 79.82 37.57 78.99 41.98C60.31 39.64 16.07 34.0201 0.0700133 20.9601C-0.119987 16.6401 0.120013 9.43005 0.410013 6.99005C16.76 21.3601 73.33 27.6001 80.77 28.4901L80.78 28.4801Z" fill="#2D3494"/>
<path d="M75.78 52.48C74.02 57.06 71.48 61.27 68.22 65.22C50.26 62.58 19.5 57.85 3.12002 48.06C1.80002 42.84 0.940017 37.5 0.330017 31.84C18.43 45.6 60 50.11 75.78 52.47V52.48Z" fill="#2D3494"/>
<path d="M59.78 74.47C55.27 78.1 50.08 81.54 43.77 84.95C43.01 85.36 41.96 86.03 40.53 86.03C39.73 86.03 37.94 85.36 37.55 85.13C21.18 76.59 8.84002 64.45 4.90002 53.97C21.24 70.57 43.69 74.11 59.78 74.46V74.47Z" fill="#2D3494"/>
</g>
<defs>
<clipPath id="clip0_42_663">
<rect width="768.78" height="86.03" fill="white"/>
</clipPath>
</defs>
</svg>
